<svg xmlns="http://www.w3.org/2000/svg" width="1.14em" height="1em" viewBox="0 0 256 226" aria-label="Bluesky Logo" role="img"><title>Bluesky</title><path fill="currentColor" d="M121.722 32.03C104.992 14.341 81.341 0 55.474 0C25.32 0 0 20.301 0 54.409c0 40.16 29.569 82.529 110.155 106.848c-30.854 4.095-65.04 7.625-96.586.685c-20.912-4.6-3.87 35.856 18.232 50.842c23.003 15.597 59.837 17.514 88.547 5.733c23.08-9.472 34.02-31.528 35.652-51.52c1.632 20 12.572 42.048 35.652 51.52c28.71 11.781 65.544 9.864 88.547-5.733c22.102-14.986 39.144-55.442 18.232-50.842c-31.546 6.94-65.732 3.41-96.586-.685C226.431 136.938 256 94.568 256 54.41C256 20.3 230.68 0 200.526 0c-25.867 0-49.518 14.341-66.248 32.03C130.347 36.143 125.795 42.6 128 42.6s-2.347-6.457-6.278-10.57z"/></svg>
