<svg xmlns="http://www.w3.org/2000/svg" viewBox="0 0 1200 800"><rect width="100%" height="100%" fill="#1a1a1d"/><g fill="#d8e3e7" opacity=".1"><ellipse cx="600" cy="300" rx="120" ry="100"/><polygon points="520 220 480 180 520 200"/><polygon points="680 220 720 180 680 200"/><ellipse cx="600" cy="450" rx="150" ry="200"/><path fill="none" stroke="#d8e3e7" stroke-width="8" d="M750,450 Q850,400 900,500 Q850,600 750,550" opacity=".1"/><ellipse cx="500" cy="620" rx="30" ry="40"/><ellipse cx="700" cy="620" rx="30" ry="40"/><circle cx="570" cy="280" r="8" fill="#d8e3e7" opacity=".2"/><circle cx="630" cy="280" r="8" fill="#d8e3e7" opacity=".2"/><polygon fill="#d8e3e7" points="600 300 590 320 610 320" opacity=".2"/></g><defs><pattern id="catPattern" width="100" height="100" x="0" y="0" patternUnits="userSpaceOnUse"><circle cx="50" cy="50" r="1" fill="#d8e3e7" opacity=".03"/></pattern></defs><rect width="100%" height="100%" fill="url(#catPattern)"/></svg>